# xmcd
#
# Track frame offsets:
#  150
#  15507
#  32802
#  54802
#  77504
#  99906
#  124152
#  143092
#  171160
#  194447
#  216459
#  240114
#  265508
#  280661
#
# Disc length: 4014 seconds
#
# Revision: 0
# Processed by: cddbd v1.4PL0 Copyright (c) Steve Scherf et al.
# Submitted via: AltoMP3_Maker 3.0
#
DISCID=ae0fac0e
DTITLE=Various Artist - The world of R&B
DYEAR=1900
DGENRE=
TTITLE0=Sexual healing
TTITLE1=Sweet love
TTITLE2=Killing me softly
TTITLE3=You still move me
TTITLE4=There's a change
TTITLE5=Dark end of the street
TTITLE6=Hey girl
TTITLE7=Brighter day
TTITLE8=Tell me
TTITLE9=Do U still love me
TTITLE10=Getting out of your bed
TTITLE11=For your precious love
TTITLE12=Oh girl
TTITLE13=Super freak
EXTD=
EXTT0=
EXTT1=
EXTT2=
EXTT3=
EXTT4=
EXTT5=
EXTT6=
EXTT7=
EXTT8=
EXTT9=
EXTT10=
EXTT11=
EXTT12=
EXTT13=
PLAYORDER=
